<?xml version="1.0" encoding="UTF-8" standalone="no"?>
<!-- Created with Inkscape (http://www.inkscape.org/) -->

<svg
   xmlns:dc="http://purl.org/dc/elements/1.1/"
   xmlns:cc="http://creativecommons.org/ns#"
   xmlns:rdf="http://www.w3.org/1999/02/22-rdf-syntax-ns#"
   xmlns:svg="http://www.w3.org/2000/svg"
   xmlns="http://www.w3.org/2000/svg"
   xmlns:sodipodi="http://sodipodi.sourceforge.net/DTD/sodipodi-0.dtd"
   xmlns:inkscape="http://www.inkscape.org/namespaces/inkscape"
   width="517.4444"
   height="494.96329"
   id="svg2"
   version="1.1"
   inkscape:version="0.48.2 r9819"
   sodipodi:docname="013-programming-languages-explained.svg"
   inkscape:export-filename="/home/amos/dev-rage/013-programming-languages-explained.png"
   inkscape:export-xdpi="87.313728"
   inkscape:export-ydpi="87.313728">
  <defs
     id="defs4" />
  <sodipodi:namedview
     id="base"
     pagecolor="#ffffff"
     bordercolor="#666666"
     borderopacity="1.0"
     inkscape:pageopacity="0.0"
     inkscape:pageshadow="2"
     inkscape:zoom="1.4"
     inkscape:cx="406.37662"
     inkscape:cy="202.30035"
     inkscape:document-units="px"
     inkscape:current-layer="layer1"
     showgrid="false"
     showguides="true"
     inkscape:guide-bbox="true"
     inkscape:window-width="1918"
     inkscape:window-height="1059"
     inkscape:window-x="0"
     inkscape:window-y="19"
     inkscape:window-maximized="1"
     fit-margin-top="0"
     fit-margin-left="0"
     fit-margin-right="0"
     fit-margin-bottom="0" />
  <metadata
     id="metadata7">
    <rdf:RDF>
      <cc:Work
         rdf:about="">
        <dc:format>image/svg+xml</dc:format>
        <dc:type
           rdf:resource="http://purl.org/dc/dcmitype/StillImage" />
        <dc:title></dc:title>
      </cc:Work>
    </rdf:RDF>
  </metadata>
  <g
     inkscape:label="Layer 1"
     inkscape:groupmode="layer"
     id="layer1"
     transform="translate(-111.62724,-380.61672)">
    <path
       style="fill:none;stroke:#565c60;stroke-width:1;stroke-linecap:round;stroke-linejoin:miter;stroke-miterlimit:4;stroke-opacity:1;stroke-dasharray:1, 2;stroke-dashoffset:0"
       d="m 144.07162,843.43341 c 95.17249,0 289.81801,18.0412 356.54987,-93.74459 84.57711,-141.67924 79.16403,-309.82646 79.16403,-309.82646"
       id="path2985"
       inkscape:connector-curvature="0"
       sodipodi:nodetypes="csc" />
    <path
       style="fill:none;stroke:#000000;stroke-width:2;stroke-linecap:butt;stroke-linejoin:miter;stroke-miterlimit:4;stroke-opacity:1;stroke-dasharray:none"
       d="m 144.42857,412.36218 0,431.42857 461.42858,0"
       id="path2987"
       inkscape:connector-curvature="0" />
    <text
       xml:space="preserve"
       style="font-size:20px;font-style:normal;font-variant:normal;font-weight:normal;font-stretch:normal;line-height:125%;letter-spacing:0px;word-spacing:0px;fill:#000000;fill-opacity:1;stroke:none;font-family:Courier New;-inkscape-font-specification:Courier New"
       x="508.71429"
       y="451.07657"
       id="text3761"
       sodipodi:linespacing="125%"><tspan
         sodipodi:role="line"
         id="tspan3763"
         x="508.71429"
         y="451.07657">Scala</tspan></text>
    <text
       xml:space="preserve"
       style="font-size:20px;font-style:normal;font-variant:normal;font-weight:normal;font-stretch:normal;line-height:125%;letter-spacing:0px;word-spacing:0px;fill:#000000;fill-opacity:1;stroke:none;font-family:Courier New;-inkscape-font-specification:Courier New"
       x="353.40668"
       y="769.04303"
       id="text3761-1"
       sodipodi:linespacing="125%"><tspan
         sodipodi:role="line"
         id="tspan3763-2"
         x="353.40668"
         y="769.04303">JavaScript</tspan></text>
    <text
       xml:space="preserve"
       style="font-size:20px;font-style:normal;font-variant:normal;font-weight:normal;font-stretch:normal;line-height:125%;letter-spacing:0px;word-spacing:0px;fill:#000000;fill-opacity:1;stroke:none;font-family:Courier New;-inkscape-font-specification:Courier New"
       x="488.31427"
       y="474.36078"
       id="text3761-6-2"
       sodipodi:linespacing="125%"><tspan
         sodipodi:role="line"
         id="tspan3763-0-9"
         x="488.31427"
         y="474.36078">Haskell</tspan></text>
    <text
       xml:space="preserve"
       style="font-size:20px;font-style:normal;font-variant:normal;font-weight:normal;font-stretch:normal;line-height:125%;letter-spacing:0px;word-spacing:0px;fill:#000000;fill-opacity:1;stroke:none;font-family:Courier New;-inkscape-font-specification:Courier New"
       x="432.02847"
       y="644.2179"
       id="text3761-6-33"
       sodipodi:linespacing="125%"><tspan
         sodipodi:role="line"
         id="tspan3763-0-7"
         x="432.02847"
         y="644.2179">Smalltalk</tspan></text>
    <text
       xml:space="preserve"
       style="font-size:20px;font-style:normal;font-variant:normal;font-weight:normal;font-stretch:normal;line-height:125%;letter-spacing:0px;word-spacing:0px;fill:#000000;fill-opacity:1;stroke:none;font-family:Courier New;-inkscape-font-specification:Courier New"
       x="528.17139"
       y="547.21765"
       id="text3761-6-9"
       sodipodi:linespacing="125%"><tspan
         sodipodi:role="line"
         id="tspan3763-0-4"
         x="528.17139"
         y="547.21765">C++</tspan></text>
    <text
       xml:space="preserve"
       style="font-size:20px;font-style:normal;font-variant:normal;font-weight:normal;font-stretch:normal;line-height:125%;letter-spacing:0px;word-spacing:0px;fill:#000000;fill-opacity:1;stroke:none;font-family:Courier New;-inkscape-font-specification:Courier New"
       x="497.59988"
       y="619.36072"
       id="text3761-6-99"
       sodipodi:linespacing="125%"><tspan
         sodipodi:role="line"
         id="tspan3763-0-1"
         x="497.59988"
         y="619.36072">Java</tspan></text>
    <text
       xml:space="preserve"
       style="font-size:20px;font-style:normal;font-variant:normal;font-weight:normal;font-stretch:normal;line-height:125%;letter-spacing:0px;word-spacing:0px;fill:#000000;fill-opacity:1;stroke:none;font-family:Courier New;-inkscape-font-specification:Courier New"
       x="253.62637"
       y="871.81049"
       id="text3761-1-6"
       sodipodi:linespacing="125%"><tspan
         sodipodi:role="line"
         id="tspan3763-2-9"
         x="253.62637"
         y="871.81049">Depth of the language</tspan></text>
    <text
       xml:space="preserve"
       style="font-size:20px;font-style:normal;font-variant:normal;font-weight:normal;font-stretch:normal;line-height:125%;letter-spacing:0px;word-spacing:0px;fill:#000000;fill-opacity:1;stroke:none;font-family:Courier New;-inkscape-font-specification:Courier New"
       x="-783.59888"
       y="124.29325"
       id="text3761-1-6-9"
       sodipodi:linespacing="125%"
       transform="matrix(0,-1,1,0,0,0)"><tspan
         sodipodi:role="line"
         x="-783.59888"
         y="124.29325"
         id="tspan3906">Assholery of the community</tspan></text>
    <text
       xml:space="preserve"
       style="font-size:40px;font-style:normal;font-weight:normal;line-height:125%;letter-spacing:0px;word-spacing:0px;fill:#000000;fill-opacity:1;stroke:none;font-family:Sans"
       x="255.71429"
       y="465.21933"
       id="text3908"
       sodipodi:linespacing="125%"><tspan
         sodipodi:role="line"
         id="tspan3910"
         x="255.71429"
         y="465.21933"></tspan></text>
    <text
       xml:space="preserve"
       style="font-size:20px;font-style:normal;font-variant:normal;font-weight:normal;font-stretch:normal;line-height:125%;letter-spacing:0px;word-spacing:0px;fill:#000000;fill-opacity:1;stroke:none;font-family:Courier New;-inkscape-font-specification:Courier New"
       x="523.62646"
       y="810.38184"
       id="text3761-1-9"
       sodipodi:linespacing="125%"><tspan
         sodipodi:role="line"
         id="tspan3763-2-6"
         x="523.62646"
         y="810.38184">LLVM IR</tspan></text>
    <text
       xml:space="preserve"
       style="font-size:20px;font-style:normal;font-variant:normal;font-weight:normal;font-stretch:normal;line-height:125%;letter-spacing:0px;word-spacing:0px;fill:#000000;fill-opacity:1;stroke:none;font-family:Courier New;-inkscape-font-specification:Courier New"
       x="167.61356"
       y="441.64648"
       id="text3761-1-9-7"
       sodipodi:linespacing="125%"><tspan
         sodipodi:role="line"
         id="tspan3763-2-6-3"
         x="167.61356"
         y="441.64648">Blitz Basic</tspan></text>
    <text
       xml:space="preserve"
       style="font-size:20px;font-style:normal;font-variant:normal;font-weight:normal;font-stretch:normal;line-height:125%;letter-spacing:0px;word-spacing:0px;fill:#000000;fill-opacity:1;stroke:none;font-family:Courier New;-inkscape-font-specification:Courier New"
       x="511.55304"
       y="567.75751"
       id="text3761-6-33-0"
       sodipodi:linespacing="125%"><tspan
         sodipodi:role="line"
         id="tspan3763-0-7-6"
         x="511.55304"
         y="567.75751">Ruby</tspan></text>
    <text
       xml:space="preserve"
       style="font-size:20px;font-style:normal;font-variant:normal;font-weight:normal;font-stretch:normal;line-height:125%;letter-spacing:0px;word-spacing:0px;fill:#000000;fill-opacity:1;stroke:none;font-family:Courier New;-inkscape-font-specification:Courier New"
       x="449.7569"
       y="692.34235"
       id="text3761-6-99-0"
       sodipodi:linespacing="125%"><tspan
         sodipodi:role="line"
         id="tspan3763-0-1-7"
         x="449.7569"
         y="692.34235">Python</tspan></text>
    <text
       xml:space="preserve"
       style="font-size:20px;font-style:normal;font-variant:normal;font-weight:normal;font-stretch:normal;line-height:125%;letter-spacing:0px;word-spacing:0px;fill:#000000;fill-opacity:1;stroke:none;font-family:Courier New;-inkscape-font-specification:Courier New"
       x="254.43503"
       y="831.31958"
       id="text3761-6-99-0-3"
       sodipodi:linespacing="125%"><tspan
         sodipodi:role="line"
         id="tspan3763-0-1-7-6"
         x="254.43503"
         y="831.31958">awk</tspan></text>
    <text
       xml:space="preserve"
       style="font-size:20px;font-style:normal;font-variant:normal;font-weight:normal;font-stretch:normal;line-height:125%;letter-spacing:0px;word-spacing:0px;fill:#000000;fill-opacity:1;stroke:none;font-family:Courier New;-inkscape-font-specification:Courier New"
       x="203.15836"
       y="833.90051"
       id="text3761-6-99-0-3-5"
       sodipodi:linespacing="125%"><tspan
         sodipodi:role="line"
         id="tspan3763-0-1-7-6-6"
         x="203.15836"
         y="833.90051">sed</tspan></text>
    <text
       xml:space="preserve"
       style="font-size:20px;font-style:normal;font-variant:normal;font-weight:normal;font-stretch:normal;line-height:125%;letter-spacing:0px;word-spacing:0px;fill:#000000;fill-opacity:1;stroke:none;font-family:Courier New;-inkscape-font-specification:Courier New"
       x="506.75681"
       y="594.91394"
       id="text3761-6-99-3"
       sodipodi:linespacing="125%"><tspan
         sodipodi:role="line"
         id="tspan3763-0-1-2"
         x="506.75681"
         y="594.91394">Perl</tspan></text>
    <text
       xml:space="preserve"
       style="font-size:20px;font-style:normal;font-variant:normal;font-weight:normal;font-stretch:normal;line-height:125%;letter-spacing:0px;word-spacing:0px;fill:#000000;fill-opacity:1;stroke:none;font-family:Courier New;-inkscape-font-specification:Courier New"
       x="485.98157"
       y="718.47186"
       id="text3761-6-33-3"
       sodipodi:linespacing="125%"><tspan
         sodipodi:role="line"
         id="tspan3763-0-7-8"
         x="485.98157"
         y="718.47186">Io</tspan></text>
    <text
       xml:space="preserve"
       style="font-size:20px;font-style:normal;font-variant:normal;font-weight:normal;font-stretch:normal;line-height:125%;letter-spacing:0px;word-spacing:0px;fill:#000000;fill-opacity:1;stroke:none;font-family:Courier New;-inkscape-font-specification:Courier New"
       x="375.6264"
       y="744.66748"
       id="text3761-1-67"
       sodipodi:linespacing="125%"><tspan
         sodipodi:role="line"
         id="tspan3763-2-61"
         x="375.6264"
         y="744.66748">ECMAScript</tspan></text>
    <text
       xml:space="preserve"
       style="font-size:20px;font-style:normal;font-variant:normal;font-weight:normal;font-stretch:normal;line-height:125%;letter-spacing:0px;word-spacing:0px;fill:#000000;fill-opacity:1;stroke:none;font-family:Courier New;-inkscape-font-specification:Courier New"
       x="401.00641"
       y="667.03394"
       id="text3761-6-99-0-8"
       sodipodi:linespacing="125%"><tspan
         sodipodi:role="line"
         id="tspan3763-0-1-7-3"
         x="401.00641"
         y="667.03394">Python 3000</tspan></text>
    <text
       xml:space="preserve"
       style="font-size:20px;font-style:normal;font-variant:normal;font-weight:normal;font-stretch:normal;line-height:125%;letter-spacing:0px;word-spacing:0px;fill:#000000;fill-opacity:1;stroke:none;font-family:Courier New;-inkscape-font-specification:Courier New"
       x="161.30496"
       y="833.32898"
       id="text3761-6-99-0-3-5-9"
       sodipodi:linespacing="125%"><tspan
         sodipodi:role="line"
         x="161.30496"
         y="833.32898"
         id="tspan4206">ed</tspan></text>
    <text
       xml:space="preserve"
       style="font-size:20px;font-style:normal;font-variant:normal;font-weight:normal;font-stretch:normal;line-height:125%;letter-spacing:0px;word-spacing:0px;fill:#000000;fill-opacity:1;stroke:none;font-family:Courier New;-inkscape-font-specification:Courier New"
       x="307.44406"
       y="824.75757"
       id="text3761-6-99-0-3-7"
       sodipodi:linespacing="125%"><tspan
         sodipodi:role="line"
         id="tspan3763-0-1-7-6-2"
         x="307.44406"
         y="824.75757">bash</tspan></text>
    <text
       xml:space="preserve"
       style="font-size:20px;font-style:normal;font-variant:normal;font-weight:normal;font-stretch:normal;line-height:125%;letter-spacing:0px;word-spacing:0px;fill:#000000;fill-opacity:1;stroke:none;font-family:Courier New;-inkscape-font-specification:Courier New"
       x="368.15836"
       y="812.61469"
       id="text3761-6-99-0-3-54"
       sodipodi:linespacing="125%"><tspan
         sodipodi:role="line"
         id="tspan3763-0-1-7-6-5"
         x="368.15836"
         y="812.61469">zsh</tspan></text>
    <text
       xml:space="preserve"
       style="font-size:20px;font-style:normal;font-variant:normal;font-weight:normal;font-stretch:normal;line-height:125%;letter-spacing:0px;word-spacing:0px;fill:#000000;fill-opacity:1;stroke:none;font-family:Courier New;-inkscape-font-specification:Courier New"
       x="418.15836"
       y="791.90033"
       id="text3761-6-99-0-3-78"
       sodipodi:linespacing="125%"><tspan
         sodipodi:role="line"
         id="tspan3763-0-1-7-6-8"
         x="418.15836"
         y="791.90033">awk</tspan></text>
    <path
       sodipodi:type="arc"
       style="stroke:none"
       id="path4249"
       sodipodi:cx="327.5"
       sodipodi:cy="529.14789"
       sodipodi:rx="3.9285715"
       sodipodi:ry="3.9285715"
       d="m 331.42857,529.14789 c 0,2.16969 -1.75888,3.92857 -3.92857,3.92857 -2.16969,0 -3.92857,-1.75888 -3.92857,-3.92857 0,-2.16969 1.75888,-3.92857 3.92857,-3.92857 2.16969,0 3.92857,1.75888 3.92857,3.92857 z"
       transform="translate(252.20536,-82.928572)" />
    <path
       sodipodi:type="arc"
       style="stroke:none"
       id="path4249-1"
       sodipodi:cx="327.5"
       sodipodi:cy="529.14789"
       sodipodi:rx="3.9285715"
       sodipodi:ry="3.9285715"
       d="m 331.42857,529.14789 c 0,2.16969 -1.75888,3.92857 -3.92857,3.92857 -2.16969,0 -3.92857,-1.75888 -3.92857,-3.92857 0,-2.16969 1.75888,-3.92857 3.92857,-3.92857 2.16969,0 3.92857,1.75888 3.92857,3.92857 z"
       transform="translate(251.75,-60.821421)" />
    <path
       sodipodi:type="arc"
       style="stroke:none"
       id="path4249-3"
       sodipodi:cx="327.5"
       sodipodi:cy="529.14789"
       sodipodi:rx="3.9285715"
       sodipodi:ry="3.9285715"
       d="m 331.42857,529.14789 c 0,2.16969 -1.75888,3.92857 -3.92857,3.92857 -2.16969,0 -3.92857,-1.75888 -3.92857,-3.92857 0,-2.16969 1.75888,-3.92857 3.92857,-3.92857 2.16969,0 3.92857,1.75888 3.92857,3.92857 z"
       transform="translate(244.16072,13.571436)" />
    <path
       sodipodi:type="arc"
       style="stroke:none"
       id="path4249-39"
       sodipodi:cx="327.5"
       sodipodi:cy="529.14789"
       sodipodi:rx="3.9285715"
       sodipodi:ry="3.9285715"
       d="m 331.42857,529.14789 c 0,2.16969 -1.75888,3.92857 -3.92857,3.92857 -2.16969,0 -3.92857,-1.75888 -3.92857,-3.92857 0,-2.16969 1.75888,-3.92857 3.92857,-3.92857 2.16969,0 3.92857,1.75888 3.92857,3.92857 z"
       transform="translate(240.23214,36.625008)" />
    <path
       sodipodi:type="arc"
       style="stroke:none"
       id="path4249-5"
       sodipodi:cx="327.5"
       sodipodi:cy="529.14789"
       sodipodi:rx="3.9285715"
       sodipodi:ry="3.9285715"
       d="m 331.42857,529.14789 c 0,2.16969 -1.75888,3.92857 -3.92857,3.92857 -2.16969,0 -3.92857,-1.75888 -3.92857,-3.92857 0,-2.16969 1.75888,-3.92857 3.92857,-3.92857 2.16969,0 3.92857,1.75888 3.92857,3.92857 z"
       transform="translate(235.05357,61.964293)" />
    <path
       sodipodi:type="arc"
       style="stroke:none"
       id="path4249-4"
       sodipodi:cx="327.5"
       sodipodi:cy="529.14789"
       sodipodi:rx="3.9285715"
       sodipodi:ry="3.9285715"
       d="m 331.42857,529.14789 c 0,2.16969 -1.75888,3.92857 -3.92857,3.92857 -2.16969,0 -3.92857,-1.75888 -3.92857,-3.92857 0,-2.16969 1.75888,-3.92857 3.92857,-3.92857 2.16969,0 3.92857,1.75888 3.92857,3.92857 z"
       transform="translate(228.625,87.142865)" />
    <path
       sodipodi:type="arc"
       style="stroke:none"
       id="path4249-6"
       sodipodi:cx="327.5"
       sodipodi:cy="529.14789"
       sodipodi:rx="3.9285715"
       sodipodi:ry="3.9285715"
       d="m 331.42857,529.14789 c 0,2.16969 -1.75888,3.92857 -3.92857,3.92857 -2.16969,0 -3.92857,-1.75888 -3.92857,-3.92857 0,-2.16969 1.75888,-3.92857 3.92857,-3.92857 2.16969,0 3.92857,1.75888 3.92857,3.92857 z"
       transform="translate(221.30357,110.98215)" />
    <path
       sodipodi:type="arc"
       style="stroke:none"
       id="path4249-38"
       sodipodi:cx="327.5"
       sodipodi:cy="529.14789"
       sodipodi:rx="3.9285715"
       sodipodi:ry="3.9285715"
       d="m 331.42857,529.14789 c 0,2.16969 -1.75888,3.92857 -3.92857,3.92857 -2.16969,0 -3.92857,-1.75888 -3.92857,-3.92857 0,-2.16969 1.75888,-3.92857 3.92857,-3.92857 2.16969,0 3.92857,1.75888 3.92857,3.92857 z"
       transform="translate(214.25,132.58929)" />
    <path
       sodipodi:type="arc"
       style="stroke:none"
       id="path4249-43"
       sodipodi:cx="327.5"
       sodipodi:cy="529.14789"
       sodipodi:rx="3.9285715"
       sodipodi:ry="3.9285715"
       d="m 331.42857,529.14789 c 0,2.16969 -1.75888,3.92857 -3.92857,3.92857 -2.16969,0 -3.92857,-1.75888 -3.92857,-3.92857 0,-2.16969 1.75888,-3.92857 3.92857,-3.92857 2.16969,0 3.92857,1.75888 3.92857,3.92857 z"
       transform="translate(204.16072,158.39286)" />
    <path
       sodipodi:type="arc"
       style="stroke:none"
       id="path4249-7"
       sodipodi:cx="327.5"
       sodipodi:cy="529.14789"
       sodipodi:rx="3.9285715"
       sodipodi:ry="3.9285715"
       d="m 331.42857,529.14789 c 0,2.16969 -1.75888,3.92857 -3.92857,3.92857 -2.16969,0 -3.92857,-1.75888 -3.92857,-3.92857 0,-2.16969 1.75888,-3.92857 3.92857,-3.92857 2.16969,0 3.92857,1.75888 3.92857,3.92857 z"
       transform="translate(190.67857,187.58929)" />
    <path
       sodipodi:type="arc"
       style="stroke:none"
       id="path4249-71"
       sodipodi:cx="327.5"
       sodipodi:cy="529.14789"
       sodipodi:rx="3.9285715"
       sodipodi:ry="3.9285715"
       d="m 331.42857,529.14789 c 0,2.16969 -1.75888,3.92857 -3.92857,3.92857 -2.16969,0 -3.92857,-1.75888 -3.92857,-3.92857 0,-2.16969 1.75888,-3.92857 3.92857,-3.92857 2.16969,0 3.92857,1.75888 3.92857,3.92857 z"
       transform="translate(177.28572,213.12501)" />
    <path
       sodipodi:type="arc"
       style="stroke:none"
       id="path4249-0"
       sodipodi:cx="327.5"
       sodipodi:cy="529.14789"
       sodipodi:rx="3.9285715"
       sodipodi:ry="3.9285715"
       d="m 331.42857,529.14789 c 0,2.16969 -1.75888,3.92857 -3.92857,3.92857 -2.16969,0 -3.92857,-1.75888 -3.92857,-3.92857 0,-2.16969 1.75888,-3.92857 3.92857,-3.92857 2.16969,0 3.92857,1.75888 3.92857,3.92857 z"
       transform="translate(158.27741,239.80337)" />
    <path
       sodipodi:type="arc"
       style="stroke:none"
       id="path4249-19"
       sodipodi:cx="327.5"
       sodipodi:cy="529.14789"
       sodipodi:rx="3.9285715"
       sodipodi:ry="3.9285715"
       d="m 331.42857,529.14789 c 0,2.16969 -1.75888,3.92857 -3.92857,3.92857 -2.16969,0 -3.92857,-1.75888 -3.92857,-3.92857 0,-2.16969 1.75888,-3.92857 3.92857,-3.92857 2.16969,0 3.92857,1.75888 3.92857,3.92857 z"
       transform="translate(118.80101,274.31937)" />
    <path
       sodipodi:type="arc"
       style="stroke:none"
       id="path4249-2"
       sodipodi:cx="327.5"
       sodipodi:cy="529.14789"
       sodipodi:rx="3.9285715"
       sodipodi:ry="3.9285715"
       d="m 331.42857,529.14789 c 0,2.16969 -1.75888,3.92857 -3.92857,3.92857 -2.16969,0 -3.92857,-1.75888 -3.92857,-3.92857 0,-2.16969 1.75888,-3.92857 3.92857,-3.92857 2.16969,0 3.92857,1.75888 3.92857,3.92857 z"
       transform="translate(71.530561,294.73042)" />
    <path
       sodipodi:type="arc"
       style="stroke:none"
       id="path4249-60"
       sodipodi:cx="327.5"
       sodipodi:cy="529.14789"
       sodipodi:rx="3.9285715"
       sodipodi:ry="3.9285715"
       d="m 331.42857,529.14789 c 0,2.16969 -1.75888,3.92857 -3.92857,3.92857 -2.16969,0 -3.92857,-1.75888 -3.92857,-3.92857 0,-2.16969 1.75888,-3.92857 3.92857,-3.92857 2.16969,0 3.92857,1.75888 3.92857,3.92857 z"
       transform="translate(7.4490091,308.74628)" />
    <path
       sodipodi:type="arc"
       style="stroke:none"
       id="path4249-74"
       sodipodi:cx="327.5"
       sodipodi:cy="529.14789"
       sodipodi:rx="3.9285715"
       sodipodi:ry="3.9285715"
       d="m 331.42857,529.14789 c 0,2.16969 -1.75888,3.92857 -3.92857,3.92857 -2.16969,0 -3.92857,-1.75888 -3.92857,-3.92857 0,-2.16969 1.75888,-3.92857 3.92857,-3.92857 2.16969,0 3.92857,1.75888 3.92857,3.92857 z"
       transform="translate(-55.05418,314.28182)" />
    <path
       sodipodi:type="arc"
       style="stroke:none"
       id="path4249-50"
       sodipodi:cx="327.5"
       sodipodi:cy="529.14789"
       sodipodi:rx="3.9285715"
       sodipodi:ry="3.9285715"
       d="m 331.42857,529.14789 c 0,2.16969 -1.75888,3.92857 -3.92857,3.92857 -2.16969,0 -3.92857,-1.75888 -3.92857,-3.92857 0,-2.16969 1.75888,-3.92857 3.92857,-3.92857 2.16969,0 3.92857,1.75888 3.92857,3.92857 z"
       transform="translate(-105.94061,313.90301)" />
    <path
       sodipodi:type="arc"
       style="stroke:none"
       id="path4249-14"
       sodipodi:cx="327.5"
       sodipodi:cy="529.14789"
       sodipodi:rx="3.9285715"
       sodipodi:ry="3.9285715"
       d="m 331.42857,529.14789 c 0,2.16969 -1.75888,3.92857 -3.92857,3.92857 -2.16969,0 -3.92857,-1.75888 -3.92857,-3.92857 0,-2.16969 1.75888,-3.92857 3.92857,-3.92857 2.16969,0 3.92857,1.75888 3.92857,3.92857 z"
       transform="translate(-153.54405,313.90301)" />
    <path
       sodipodi:type="arc"
       style="stroke:none"
       id="path4249-64"
       sodipodi:cx="327.5"
       sodipodi:cy="529.14789"
       sodipodi:rx="3.9285715"
       sodipodi:ry="3.9285715"
       d="m 331.42857,529.14789 c 0,2.16969 -1.75888,3.92857 -3.92857,3.92857 -2.16969,0 -3.92857,-1.75888 -3.92857,-3.92857 0,-2.16969 1.75888,-3.92857 3.92857,-3.92857 2.16969,0 3.92857,1.75888 3.92857,3.92857 z"
       transform="translate(-98.785714,-76.785706)" />
    <path
       sodipodi:type="arc"
       style="stroke:none"
       id="path4249-64-3"
       sodipodi:cx="327.5"
       sodipodi:cy="529.14789"
       sodipodi:rx="3.9285715"
       sodipodi:ry="3.9285715"
       d="m 331.42857,529.14789 c 0,2.16969 -1.75888,3.92857 -3.92857,3.92857 -2.16969,0 -3.92857,-1.75888 -3.92857,-3.92857 0,-2.16969 1.75888,-3.92857 3.92857,-3.92857 2.16969,0 3.92857,1.75888 3.92857,3.92857 z"
       transform="translate(243.35714,291.07143)" />
    <path
       style="stroke:none"
       d="m 144.20306,380.61672 c 0,0 7.68293,33.67343 7.68293,33.5716 l -15,0 z"
       id="rect4417"
       inkscape:connector-curvature="0"
       sodipodi:nodetypes="cccc" />
    <path
       style="stroke:none"
       d="m 629.07163,843.60783 c 0,0 -33.67343,7.68293 -33.5716,7.68293 l 0,-15 z"
       id="rect4417-6"
       inkscape:connector-curvature="0"
       sodipodi:nodetypes="cccc" />
  </g>
</svg>
